<?xml version="1.0" standalone="no"?>
<!DOCTYPE svg PUBLIC "-//W3C//DTD SVG 20010904//EN"
 "http://www.w3.org/TR/2001/REC-SVG-20010904/DTD/svg10.dtd">
<svg version="1.0"  xmlns="http://www.w3.org/2000/svg"
 width="512.000000pt"  height="512.000000pt" viewBox="0 0 512.000000 512.000000"
 preserveAspectRatio="xMidYMid meet">
<metadata>
Created by potrace 1.15, written by Peter Selinger 2001-2017
</metadata>
<g transform="translate(0.000000,512.000000) scale(0.100000,-0.100000)"
 fill="#353535" stroke="none">
<path d="M273 4465 c-100 -31 -190 -112 -241 -215 l-27 -55 0 -1780 0 -1780
28 -58 c40 -80 112 -151 194 -190 l68 -32 1762 -3 1761 -2 21 26 c21 26 27 67
15 99 -18 47 52 45 -1786 45 -1645 0 -1725 1 -1763 19 -50 22 -108 86 -126
137 -12 32 -14 326 -14 1749 l0 1710 21 40 c28 51 68 91 119 119 l40 21 2215
0 2215 0 40 -21 c55 -30 94 -70 119 -124 21 -45 21 -54 26 -1082 5 -1022 5
-1037 25 -1052 31 -24 88 -20 113 7 l22 24 -2 1064 -3 1064 -29 60 c-38 77
-114 153 -191 191 l-60 29 -2260 2 c-1857 1 -2268 -1 -2302 -12z"/>
<path d="M2092 3421 c-55 -14 -106 -55 -137 -112 l-30 -54 -3 -743 c-1 -472 1
-757 7 -780 15 -53 57 -114 99 -142 31 -22 47 -25 121 -25 74 0 93 4 140 28
30 16 307 173 615 350 481 276 570 331 622 382 54 53 63 68 74 118 12 51 11
65 -4 112 -31 100 -57 118 -689 483 -317 183 -600 343 -629 357 -60 26 -138
37 -186 26z"/>
<path d="M4312 1580 c-67 -41 -72 -61 -72 -287 l0 -203 -183 0 c-158 0 -187
-2 -217 -19 -54 -28 -80 -74 -80 -141 0 -71 27 -116 90 -148 41 -20 58 -22
217 -22 l173 0 0 -167 c0 -188 7 -213 72 -253 45 -27 131 -27 176 0 65 40 72
65 72 253 l0 167 173 0 c159 0 176 2 217 23 63 31 90 76 90 147 0 67 -26 113
-80 141 -30 17 -59 19 -217 19 l-183 0 0 203 c0 226 -5 246 -72 287 -45 27
-131 27 -176 0z"/>
</g>
</svg>
